<?xml version="1.0" encoding="UTF-8"?>
<svg id="orbitz" data-name="Layer 1" xmlns="http://www.w3.org/2000/svg" viewBox="0 0 539.91 120.36">
  <defs>
    <style>
      .cls-1 {
        fill: #ed1c24;
      }

      .cls-1, .cls-2, .cls-3, .cls-4 {
        stroke: #231f20;
      }

      .cls-2 {
        fill: #ed2024;  
      }

      .cls-3 {
        fill: #3b53a4;
      }

      .cls-4 {
        fill: #f1e912;
        stroke-miterlimit: 10;
      }
  #orbitz:hover .cls-1,
        #orbitz:hover .cls-2 {
           fill: #3b53a4;
}

    
    </style>
  </defs>
  <g id="RBITZ">
    <path class="cls-3" d="m169.76,36.85v79.4h-32.3V7.65h41.45c12.62,0,22.41,3.13,29.36,9.39,7.74,7,11.62,15.89,11.62,26.65s-4.8,20.23-14.4,27.77l18.62,44.79h-33.89l-15.67-35.01v-27.92h2.55c6.79,0,10.18-2.92,10.18-8.75,0-5.14-3.93-7.72-11.77-7.72h-5.73Z"/>
    <path class="cls-3" d="m234.92,7.65h39.46c23.39,0,35.09,9.2,35.09,27.61,0,9.12-4,16.71-12.01,22.75,11.62,5.04,17.42,14.03,17.42,26.97,0,9.92-3.42,17.82-10.26,23.71-3.34,2.81-6.92,4.77-10.74,5.89s-8.96,1.67-15.43,1.67h-6.13v-27.92h5.49c3.23,0,5.52-.41,6.84-1.23,1.33-.82,1.99-2.27,1.99-4.34,0-3.5-2.7-5.25-8.11-5.25h-6.21v-28.96c5.94,0,8.91-2.04,8.91-6.13,0-3.76-2.68-5.65-8.04-5.65h-5.97v79.48h-32.3V7.65Z"/>
    <path class="cls-3" d="m360.23,7.65v108.6h-32.3V7.65h32.3Z"/>
    <path class="cls-3" d="m429.2,38.84v77.41h-32.3V38.84h-24.74V7.65h96.88l-16.18,31.19h-23.66Z"/>
    <path class="cls-3" d="m539.15,7.65l-33.73,77.41h33.33v31.19h-81.94l33.57-77.41h-29.45l16.64-31.19h61.58Z"/>
  </g>
  <g id="O">
    <path class="cls-2" d="m114.59,63.81c0,15.86-5.54,28.33-16.63,39.42-11.09,11.09-24.56,16.63-40.42,16.63s-29.2-5.57-40.34-16.71C6.07,92.01.5,79.57.5,63.81m33.1,0c0,6.9,2.35,11.78,7.04,16.66,4.69,4.88,10.33,7.32,16.91,7.32s12.34-2.43,16.99-7.28c4.64-4.85,6.96-9.75,6.96-16.7"/>
    <path class="cls-1" d="m.5,56.54c0-15.86,5.54-28.33,16.63-39.42C28.21,6.04,41.68.5,57.54.5s29.2,5.57,40.34,16.71c11.14,11.14,16.71,23.58,16.71,39.34m-33.1,0c0-6.9-2.35-11.78-7.04-16.66-4.69-4.88-10.33-7.32-16.91-7.32s-12.34,2.43-16.99,7.28c-4.64,4.85-6.96,9.75-6.96,16.7"/>
    <path class="cls-4" d="m42.22,50.26h30.64c0,5.33-3.21,6.88-3.21,6.88h-22.71s-4.72-1.1-4.72-6.88Z"/>
    <path class="cls-4" d="m72.87,69.34h-30.65c0-5.33,3.21-6.88,3.21-6.88h22.72s4.72,1.1,4.72,6.88Z"/>
  </g>
</svg>